<?xml version="1.0" standalone="no"?>
<!DOCTYPE svg PUBLIC "-//W3C//DTD SVG 20010904//EN"
 "http://www.w3.org/TR/2001/REC-SVG-20010904/DTD/svg10.dtd">
<svg version="1.0" xmlns="http://www.w3.org/2000/svg"
 width="512.000000pt" height="512.000000pt" viewBox="0 0 512.000000 512.000000"
 preserveAspectRatio="xMidYMid meet">
<metadata>
Created by potrace 1.14, written by Peter Selinger 2001-2017
</metadata>
<g transform="translate(0.000000,512.000000) scale(0.100000,-0.100000)"
fill="#000000" stroke="none">
<path d="M650 5106 c-152 -43 -282 -169 -328 -319 -4 -12 -8 -1007 -9 -2212
-3 -2370 -6 -2225 48 -2332 34 -67 112 -146 178 -181 123 -66 -27 -62 2016
-62 2001 0 1901 -2 2012 51 99 47 206 185 232 300 7 29 11 790 11 2210 0 1922
-2 2172 -16 2220 -24 87 -55 139 -119 205 -65 65 -135 104 -223 123 -81 17
-3740 14 -3802 -3z m560 -449 l0 -163 -49 -23 c-216 -97 -311 -376 -204 -598
35 -74 133 -173 202 -203 100 -46 79 -50 -249 -50 l-300 0 0 543 0 542 24 39
c43 72 59 75 334 76 l242 0 0 -163z m1200 0 l0 -163 -52 -24 c-77 -34 -175
-139 -211 -225 -50 -118 -47 -249 8 -369 33 -73 132 -174 202 -207 103 -47 90
-49 -397 -49 -488 0 -504 2 -397 50 66 30 163 128 198 200 65 134 64 271 -2
407 -32 65 -132 163 -196 193 l-53 25 0 162 0 163 450 0 450 0 0 -163z m1200
0 l0 -163 -51 -24 c-69 -31 -167 -129 -203 -204 -58 -122 -58 -272 2 -394 35
-72 134 -173 201 -203 102 -47 87 -49 -399 -49 -486 0 -504 2 -401 49 97 43
183 141 226 256 20 53 26 189 12 254 -24 107 -134 243 -234 291 l-53 25 0 162
0 163 450 0 450 0 0 -163z m808 148 c22 -9 50 -30 63 -48 l24 -32 3 -552 3
-553 -301 0 c-326 0 -346 4 -249 48 28 13 78 51 112 85 96 96 138 200 133 330
-2 40 -6 85 -10 101 -25 105 -138 243 -233 286 l-53 24 0 163 0 163 235 0
c188 0 242 -3 273 -15z m-3208 -1952 l0 -468 -48 -22 c-96 -46 -193 -156 -230
-261 -6 -19 -15 -67 -18 -107 -12 -134 32 -251 129 -348 34 -34 86 -73 115
-87 42 -20 52 -29 52 -50 0 -20 -9 -29 -51 -48 -68 -32 -168 -133 -201 -202
-71 -153 -61 -312 29 -448 44 -65 107 -122 173 -153 l50 -24 0 -167 0 -168
-235 0 c-283 0 -306 6 -349 87 -15 29 -16 161 -16 1483 l0 1450 300 0 300 0 0
-467z m1200 300 l0 -168 -53 -25 c-100 -48 -207 -180 -233 -287 -16 -66 -12
-188 8 -248 38 -115 129 -221 231 -268 38 -18 47 -27 47 -47 0 -20 -10 -30
-50 -48 -220 -105 -311 -380 -199 -608 33 -66 132 -164 197 -194 l52 -25 0
-467 0 -468 -450 0 -450 0 0 168 0 167 53 25 c98 45 209 183 233 286 36 164
-6 315 -120 430 -36 35 -83 70 -113 84 -45 20 -53 28 -53 50 0 22 8 30 53 50
67 30 166 130 199 201 69 148 61 303 -24 440 -36 60 -115 130 -180 161 l-48
23 0 467 0 468 450 0 450 0 0 -167z m1200 -301 l0 -469 -52 -24 c-69 -31 -166
-129 -200 -199 -64 -135 -63 -271 3 -407 31 -64 131 -162 197 -193 42 -20 52
-29 52 -50 0 -20 -10 -30 -53 -49 -63 -30 -164 -129 -193 -191 -39 -81 -44
-101 -51 -174 -11 -134 33 -253 131 -350 36 -37 84 -73 114 -86 l52 -24 0
-168 0 -168 -450 0 -450 0 0 468 0 468 49 23 c94 42 173 128 221 241 32 76 36
211 9 293 -40 119 -129 222 -231 270 -39 18 -48 27 -48 48 0 20 8 29 42 44 54
23 60 28 128 96 212 212 149 582 -119 709 l-51 25 0 167 0 168 450 0 450 0 0
-468z m900 -984 c0 -1452 0 -1453 -21 -1487 -47 -78 -62 -81 -345 -81 l-234 0
0 168 0 167 53 25 c29 14 78 51 112 85 140 141 172 332 87 514 -32 70 -132
171 -199 202 -44 20 -53 28 -53 49 0 21 10 30 53 50 67 31 165 130 198 200 65
136 64 271 -2 407 -31 64 -131 162 -197 193 l-52 25 0 467 0 468 300 0 300 0
0 -1452z"/>
</g>
</svg>
